<?xml version="1.0" encoding="utf-8"?>
<!-- Generator: Adobe Illustrator 21.0.2, SVG Export Plug-In . SVG Version: 6.00 Build 0)  -->
<svg version="1.1" id="Layer_2" xmlns="http://www.w3.org/2000/svg" xmlns:xlink="http://www.w3.org/1999/xlink" x="0px" y="0px"
	 viewBox="0 0 100 100" style="enable-background:new 0 0 100 100;" xml:space="preserve">
<style type="text/css">
	.st0{fill:#666666;}
</style>
<polygon class="st0" points="87.9,62 87.9,50 87.9,46.4 87.9,46 52,46 52,34 64.1,34 64.1,13 35.9,13 35.9,34 48,34 48,46 12.1,46 
	12.1,46.4 12.1,50 12.1,62 0,62 0,83 28.3,83 28.3,62 16.1,62 16.1,50 48,50 48,62 35.9,62 35.9,83 64.1,83 64.1,62 52,62 52,50 
	83.9,50 83.9,62 71.8,62 71.8,83 100,83 100,62 "/>
</svg>
